<?xml version="1.0" encoding="UTF-8" standalone="no"?>
<svg xmlns="http://www.w3.org/2000/svg" version="1.0" width="188" height="261" id="svg2">
  <path id="path3586" style="fill:#fbfb05;fill-opacity:1;fill-rule:evenodd;stroke:#0505fb;stroke-width:1.60000002;stroke-linecap:butt;stroke-linejoin:miter;stroke-miterlimit:4;stroke-dasharray:none;stroke-opacity:1" d="M 12.53645,164.1375 L 24.22395,176.825 L 24.22395,184.325 L 15.59895,194.575 L 2.34895,182.575 L 18.09895,182.575 C 13.83847,176.91043 11.79836,170.80178 12.53645,164.1375 z " />
  <g id="g3520" style="fill:#fbfb05;fill-opacity:1;stroke:#000000;stroke-width:0.37425849;stroke-miterlimit:4;stroke-dasharray:none;stroke-opacity:1" transform="matrix(1.3733745,0,0,1.5987745,45.135437,-55.148625)">
    <path id="path3522" style="fill:#fbfb05;fill-opacity:1;stroke:#000000;stroke-width:0.37425849;stroke-miterlimit:4;stroke-dasharray:none;stroke-opacity:1" d="M 28.63541,55.109321 C 30.611561,59.414581 31.105753,59.697041 36.046234,61.390941 C 40.986715,63.084631 54.943835,64.690451 56.320131,64.849251 C 55.420245,63.949371 39.698712,52.303801 36.46971,49.974681 C 33.240707,47.645571 32.340822,46.586881 32.340822,46.586881 C 32.340822,46.586881 29.429427,41.346381 28.423672,39.811281 C 27.417918,38.276181 25.565211,36.105871 23.130227,36.105871 C 20.695242,36.105871 19.21318,37.535101 18.507353,40.075951 C 18.119132,40.181821 16.037009,41.452451 16.107623,42.758031 C 16.707582,42.687311 20.483608,41.628621 21.78929,45.898731 C 23.095075,50.168841 23.165585,57.155981 21.824545,60.614501 C 20.483504,64.073021 18.401485,66.684171 18.401485,69.719221 C 18.401485,70.142691 18.683733,70.989641 19.38956,70.989641 C 19.636553,72.330791 21.612807,81.894131 21.612807,81.894131 L 49.774042,81.894131 L 54.247003,64.602161" />
    <path id="path3528" style="fill:#fbfb05;fill-opacity:1;stroke:#000000;stroke-width:0.37425849;stroke-miterlimit:4;stroke-dasharray:none;stroke-opacity:1" d="M 19.38956,70.989641 C 19.38956,70.989641 25.388832,70.636881 27.012225,70.636881 C 28.63541,70.636881 43.74613,70.655501 52.176976,72.604761" />
    <path id="path3530" style="fill:#fbfb05;fill-opacity:1;stroke:#000000;stroke-width:0.37425849;stroke-miterlimit:4;stroke-dasharray:none;stroke-opacity:1" d="M 21.508178,70.870751 C 21.508178,70.870751 20.907083,70.142691 21.2952,68.695891 C 21.683318,67.249081 25.918177,63.508111 25.918177,58.214871" />
    <path id="path3532" style="fill:#fbfb05;fill-opacity:1;stroke:#000000;stroke-width:0.37425849;stroke-miterlimit:4;stroke-dasharray:none;stroke-opacity:1" d="M 25.141736,70.636881 C 25.141736,70.636881 24.64775,68.272411 30.047065,66.260901 C 31.564587,65.802071 35.905007,63.367091 36.046234,61.390941" />
    <path id="path3534" style="fill:#fbfb05;fill-opacity:1;stroke:#000000;stroke-width:0.37425849;stroke-miterlimit:4;stroke-dasharray:none;stroke-opacity:1" d="M 29.473056,66.485261 C 29.473056,66.485261 42.71639,66.543151 53.197205,68.660531" />
    <path id="path3536" style="fill:#fbfb05;fill-opacity:1;stroke:#000000;stroke-width:0.37425849;stroke-miterlimit:4;stroke-dasharray:none;stroke-opacity:1" d="M 32.792626,64.905291 C 32.792626,64.905291 37.343128,65.060991 38.084211,64.849251 C 38.825293,64.637511 40.137077,64.087081 40.658976,62.536061" />
    <path id="path3538" style="fill:#fbfb05;fill-opacity:1;stroke:#000000;stroke-width:0.37425849;stroke-miterlimit:4;stroke-dasharray:none;stroke-opacity:1" d="M 35.490423,64.959261 C 35.490423,64.959261 37.924582,63.693791 38.401404,62.048281" />
    <path id="path3540" style="fill:#fbfb05;fill-opacity:1;stroke:#000000;stroke-width:0.37425849;stroke-miterlimit:4;stroke-dasharray:none;stroke-opacity:1" d="M 28.141424,81.894131 C 28.141424,81.894131 27.100311,74.677681 26.888574,70.636881 L 29.606013,73.230671 L 32.480809,70.716491 L 34.952392,73.354321 L 37.810027,70.929471 L 40.28099,73.707081 L 43.110918,71.300431 L 45.362698,73.918821 L 48.184976,71.877951 L 51.540109,75.066631" />
    <path id="path3542" style="fill:#fbfb05;fill-opacity:1;stroke:#000000;stroke-width:0.37425849;stroke-miterlimit:4;stroke-dasharray:none;stroke-opacity:1" d="M 50.9508,77.345081 C 40.870302,75.901381 27.380491,75.995051 27.380491,75.995051" />
    <path id="path3544" style="fill:#fbfb05;fill-opacity:1;stroke:#000000;stroke-width:0.37425849;stroke-miterlimit:4;stroke-dasharray:none;stroke-opacity:1" d="M 22.693931,51.052191 C 22.693931,51.052191 30.89381,47.133801 32.340822,46.586881" />
  </g>
  <path id="path3357" style="fill:#ff0000;fill-opacity:1;fill-rule:evenodd;stroke:none" d="M 125.59895,67.45 C 126.49878,73.03333 128.54315,78.61667 130.34895,84.2 L 143.59895,74.95 L 142.34895,68.2 L 125.59895,67.45 z " />
  <path id="path3355" style="fill:#ff0000;fill-opacity:1;fill-rule:evenodd;stroke:none" d="M 63.34895,67.45 C 62.44912,73.03333 60.40475,78.61667 58.59895,84.2 L 45.34895,74.95 L 46.59895,68.2 L 63.34895,67.45 z " />
  <path id="path2170" style="fill:#0505fb;fill-opacity:1;fill-rule:evenodd;stroke:none" d="M 94.56008,66.96545 C 107.93697,74.51598 123.127,76.30648 140.03732,73.92974 C 142.4966,72.43768 143.30601,70.60379 141.93473,69.59714 C 139.74889,71.53265 131.35242,71.74793 126.28732,70.09045 C 124.23326,67.97512 124.50408,66.62178 127.68974,66.43066 C 133.33059,67.45508 138.94798,68.43195 143.16232,66.25117 L 165.4225,88.06672 C 153.92076,105.34698 151.85735,120.60576 160.2159,136.87617 C 165.57413,152.43421 167.93043,167.58022 156.28732,180.80474 C 147.235,188.9899 136.95048,195.50798 125.03732,199.8226 C 112.68891,205.36634 99.31691,211.60395 94.18443,222.97059 C 89.05196,211.60395 76.43126,205.36634 64.08285,199.8226 C 52.16969,195.50798 41.88517,188.9899 32.83285,180.80474 C 21.18974,167.58022 23.54604,152.43421 28.90427,136.87617 C 37.26282,120.60576 36.83459,103.88857 25.33285,86.60831 L 45.95785,66.25117 C 50.17219,68.43195 55.78958,67.45508 61.43043,66.43066 C 64.61609,66.62178 64.88691,67.97512 62.83285,70.09045 C 57.76775,71.74793 49.37128,71.53265 47.18544,69.59714 C 45.81416,70.60379 46.62357,72.43768 49.08285,73.92974 C 65.99317,76.30648 81.18319,74.51598 94.56008,66.96545 z " />
  <path id="path2191" style="fill:#80e5ff;fill-rule:evenodd;stroke:none" d="M 94.84973,73.2964 C 90.65555,74.69557 86.81868,76.14266 82.22185,76.9946 L 94.23739,117.04674 L 78.7944,78.36159 C 71.86768,79.68431 62.43988,80.54721 53.5911,80.23617 L 88.70349,116.87491 L 42.82069,79.63479 L 33.33163,88.68862 C 44.70937,105.96511 41.3673,120.61585 36.45589,135.10181 L 153.24357,135.10181 C 148.33216,120.61585 146.40431,104.99283 157.78205,87.71634 L 148.38137,79.98834 L 102.37097,118.12491 L 138.49485,80.50134 C 129.64607,80.81238 122.07442,80.03786 115.1477,78.71514 L 98.46207,116.54674 L 107.47761,76.9946 C 102.88078,76.14266 99.04391,74.69557 94.84973,73.2964 z " />
  <path id="path3193" style="fill:#55d400;fill-rule:evenodd;stroke:none" d="M 40.09594,121.96115 C 39.25997,126.40041 37.92847,130.75851 36.45589,135.10181 L 153.24357,135.10181 C 151.79151,130.81903 150.60024,126.43686 149.93651,121.94195 L 40.09594,121.96115 z " />
  <path id="path3195" style="fill:#fbfb05;fill-opacity:1;fill-rule:evenodd;stroke:none" d="M 36.66145,134.49407 C 36.59273,134.69873 36.51207,134.88322 36.4427,135.08782 C 35.78121,136.31249 35.19176,135.5124 34.6302,136.68157 C 35.70604,136.33846 36.94411,136.11907 38.3802,136.11907 C 41.75353,136.11908 44.04947,137.53999 45.5677,138.55657 C 47.08593,139.57315 47.80762,140.18157 49.9427,140.18157 C 52.07776,140.18158 52.34148,139.72628 53.5677,138.71282 C 54.79392,137.69936 57.00437,136.11907 60.34895,136.11907 C 63.69352,136.11908 65.93876,137.57809 67.41145,138.58782 C 68.88414,139.59755 69.5818,140.18157 71.78645,140.18157 C 73.99108,140.18158 74.49892,139.62789 75.84895,138.61907 C 77.19898,137.61025 79.41,136.11907 82.7552,136.11907 C 86.01268,136.11908 88.27998,137.33706 89.8177,138.33782 C 91.35542,139.33858 92.16542,139.96301 93.9427,140.18157 C 95.59598,140.3849 96.98221,140.18002 98.03645,139.86907 L 98.03645,134.49407 L 36.66145,134.49407 z " />
  <path id="path3199" style="fill:#ff0000;fill-rule:evenodd;stroke:none" d="M 153.23579,134.48231 C 153.30627,134.68698 153.37712,134.89162 153.44828,135.09622 C 180.5369,183.98021 124.59169,187.82471 94.1819,212.29527 L 94.2308,134.48209 L 153.23579,134.48231 z " />
  <path id="path3202" style="fill:#ffffff;fill-opacity:1;fill-rule:evenodd;stroke:none" d="M 113.97395,138.325 L 113.59895,144.075 L 108.34895,142.95 L 107.97395,149.45 L 97.34895,147.2 L 108.34895,157.325 L 97.47395,157.7 L 105.34895,163.075 L 99.22395,169.7 L 107.97395,169.825 L 105.72395,177.7 L 113.34895,173.825 L 113.22395,182.95 L 121.84895,178.325 L 132.72395,182.45 L 132.97395,174.95 L 139.34895,178.2 L 137.59895,169.95 L 148.47395,169.825 L 139.47395,163.825 L 147.97395,162.325 L 140.84895,157.325 L 147.22395,152.075 L 136.47395,151.075 L 142.97395,144.2 L 133.84895,144.7 L 133.47395,138.325 L 126.09895,142.075 L 123.84895,137.575 L 118.84895,142.075 L 113.97395,138.325 z " />
  <path id="path3336" style="fill:#ffd42a;fill-opacity:1;fill-rule:evenodd;stroke:#000000;stroke-width:1px" d="M 123.88334,191.575 C 123.0876,191.19911 121.86584,191.05223 121.23023,189.075 C 122.73708,175.65892 119.42226,177.22905 119.35523,173.325 L 123.88334,173.325 L 128.41145,173.325 C 128.34442,177.22905 125.0296,175.65892 126.53645,189.075 C 125.90084,191.05223 124.67908,191.19911 123.88334,191.575 z " />
  <path id="path3343" style="fill:#ffd42a;fill-opacity:1;fill-rule:evenodd;stroke:#000000;stroke-width:1px" d="M 117.91145,173.075 L 129.84895,173.075 L 129.84895,166.6375 L 117.8802,166.6375 L 117.91145,173.075 z " />
  <path id="path3590" style="fill:#fbfb05;fill-opacity:1;fill-rule:evenodd;stroke:#0505fb;stroke-width:1.60000002;stroke-miterlimit:4;stroke-dasharray:none;stroke-opacity:1" d="M 94.1302,230.2 C 111.50458,230.5548 132.5071,203.61177 149.91145,203.825 C 164.94285,203.49966 168.03874,222.00574 185.78645,218.325 L 185.84895,250.2 C 185.82261,253.89479 184.36775,256.10153 180.34895,255.6375 C 177.63021,254.51768 174.61171,253.27227 172.59895,251.2625 C 166.90372,245.37698 160.57301,240.33876 154.41145,235.075 C 151.22487,232.7473 147.38935,232.73725 143.03645,234.575 C 125.78058,248.44632 108.68475,258.5066 94.1302,258.7 C 79.57565,258.5066 62.47982,248.44632 45.22395,234.575 C 40.87105,232.73725 37.03553,232.7473 33.84895,235.075 C 27.68739,240.33876 21.35668,245.37698 15.66145,251.2625 C 13.64869,253.27227 10.63019,254.51768 7.91145,255.6375 C 3.89265,256.10153 2.43779,253.89479 2.41145,250.2 L 2.47395,218.325 C 20.22166,222.00574 23.31755,203.49966 38.34895,203.825 C 55.7533,203.61177 76.75582,230.5548 94.1302,230.2 z " />
  <path id="path3597" style="fill:#fbfb05;fill-opacity:1;fill-rule:evenodd;stroke:#0505fb;stroke-width:1.60000002;stroke-miterlimit:4;stroke-dasharray:none;stroke-opacity:1" d="M 175.5625,164.45 L 163.875,177.1375 L 163.875,184.6375 L 172.5,194.8875 L 185.75,182.8875 L 170,182.8875 C 174.26048,177.22293 176.30059,171.11428 175.5625,164.45 z " />
  <path id="path3588" style="fill:#0505fb;fill-opacity:1;fill-rule:evenodd;stroke:#0505fb;stroke-width:1px" d="M 24.20736,176.89778 C 24.54423,179.56175 24.54046,182.36379 23.60381,184.33312 L 6.9868,204.48566 C 4.36436,208.44695 1.41995,212.38603 2.09895,216.575 C 2.33897,220.04155 8.47521,220.26269 10.59895,219.825 C 17.49089,217.73126 21.96859,212.87839 26.59895,208.2 L 25.41145,178.5125 L 24.20736,176.89778 z " />
  <path id="path3599" style="fill:#0505fb;fill-opacity:1;fill-rule:evenodd;stroke:#0505fb;stroke-width:1px" d="M 163.89159,177.21028 C 163.55472,179.87425 163.55849,182.67629 164.49514,184.64562 L 181.11215,204.79816 C 183.73459,208.75945 186.679,212.69853 186,216.8875 C 185.75998,220.35405 179.62374,220.57519 177.5,220.1375 C 170.60806,218.04376 166.13036,213.19089 161.5,208.5125 L 162.6875,178.825 L 163.89159,177.21028 z " />
  <path id="path3640" style="fill:#0505fb;fill-opacity:1;stroke:none;font-family:Old English Text MT" d="M 68.03127,219.95777 L 68.38283,220.25074 C 67.6875,221.18826 67.09961,222.032 66.61916,222.78199 C 66.13867,223.532 65.30078,224.94216 64.10548,227.01246 L 67.7383,227.01246 L 67.29298,227.9148 L 63.56642,227.9148 C 63.32422,228.33669 63.0586,228.76247 62.76955,229.19215 L 66.64845,229.19215 L 66.26173,230.05933 L 62.14845,230.05933 C 61.60938,230.82496 61.04102,231.532 60.44337,232.18043 C 59.84571,232.82887 58.48439,234.15309 56.35939,236.15308 C 58.6797,235.15309 60.87501,234.65309 62.94533,234.65308 C 63.62501,234.65309 64.25586,234.7273 64.83791,234.87574 C 65.41993,235.02418 66.0625,235.27418 66.76564,235.62574 L 68.03127,234.11402 L 68.38283,234.45386 L 65.72267,237.71168 C 64.71485,237.2273 63.80469,236.88355 62.9922,236.68043 C 62.17969,236.4773 61.29298,236.37574 60.33205,236.37574 C 59.37892,236.37574 58.46095,236.47926 57.57814,236.68629 C 56.69532,236.89332 55.69923,237.23511 54.58986,237.71168 L 54.28517,237.30152 C 55.19923,236.2859 55.94728,235.36793 56.52931,234.54761 C 57.11134,233.72731 58.04689,232.23121 59.33595,230.05933 L 55.72658,230.05933 L 56.14845,229.19215 L 59.92189,229.19215 L 60.7422,227.9148 L 56.76955,227.9148 L 57.20314,227.01246 L 61.39845,227.01246 C 62.02344,226.19997 62.64454,225.4656 63.26173,224.80933 C 64.09766,223.91872 65.22657,222.80154 66.64845,221.45777 C 65.48438,222.03591 64.46094,222.43825 63.57814,222.6648 C 62.69532,222.89138 61.76173,223.00466 60.77736,223.00465 C 59.9961,223.00466 59.27735,222.92263 58.62111,222.75855 C 58.13673,222.63357 57.57032,222.39529 56.92189,222.04371 L 55.45705,223.80152 L 55.04689,223.43824 L 58.01173,219.95777 C 58.9961,220.44998 59.87306,220.79763 60.64259,221.00074 C 61.41212,221.20388 62.19923,221.30544 63.00392,221.30543 C 63.78516,221.30544 64.55274,221.20779 65.30666,221.01246 C 66.06055,220.81716 66.96875,220.4656 68.03127,219.95777 z " />
  <path id="path3614" style="fill:#0505fb;fill-opacity:1;stroke:none;font-family:Old English Text MT" d="M 124.65455,221.89816 C 123.43575,221.89818 122.27565,222.18724 121.12335,222.74191 C 119.97105,223.29662 119.10375,224.06224 118.52955,225.02316 C 117.95535,225.98411 117.65455,227.02317 117.65455,228.14816 C 117.65455,229.11692 117.88505,229.99192 118.34205,230.77316 C 118.79905,231.55441 119.58415,232.35911 120.71705,233.21066 L 119.06085,235.49191 C 118.99045,235.59348 118.89645,235.71847 118.81085,235.83566 C 118.38885,236.38253 118.08815,236.87082 117.87335,237.33566 C 117.65845,237.80051 117.52955,238.24191 117.52955,238.61691 C 117.52955,238.95285 117.63885,239.21847 117.81085,239.42941 C 117.92795,239.58566 118.08425,239.64816 118.27955,239.64816 C 118.43585,239.64816 118.54515,239.59738 118.65455,239.49191 C 118.76385,239.38645 118.84205,239.26535 118.84205,239.11691 C 118.84205,239.01535 118.72485,238.78879 118.52955,238.46066 C 118.38105,238.21848 118.31085,238.00754 118.31085,237.80441 C 118.31085,237.61692 118.38095,237.46848 118.49835,237.36691 C 118.65445,237.22629 118.83405,237.14817 119.06085,237.14816 C 119.97495,237.14817 121.69365,237.9841 124.21705,239.64816 L 128.74835,236.21066 C 128.77945,237.25754 128.92405,238.0466 129.18585,238.52316 C 129.44755,238.99972 129.91235,239.35909 130.52955,239.64816 L 131.24835,239.05441 L 133.43585,237.21066 L 133.09205,236.77316 C 132.61545,237.22628 132.25615,237.42942 132.02955,237.42941 C 131.84205,237.42942 131.69345,237.32785 131.56085,237.11691 C 131.37335,236.82003 131.26385,236.20285 131.24835,235.24191 L 131.02955,226.49191 C 131.02165,226.14036 131.02955,225.85911 131.02955,225.64816 C 131.02955,224.99193 131.07635,224.48021 131.18585,224.14816 C 131.29525,223.81614 131.50995,223.51145 131.77955,223.24191 C 132.04905,222.97239 132.43555,222.70287 132.99835,222.42941 L 132.77955,221.89816 C 132.17015,222.17943 131.67015,222.45677 131.27955,222.74191 C 130.88885,223.02708 130.48245,223.39037 130.06085,223.83566 C 128.32635,222.5388 126.52165,221.89818 124.65455,221.89816 z M 124.09205,223.89816 C 125.06865,223.89817 126.04515,224.13255 127.02955,224.61691 L 126.15455,225.80441 C 125.45915,225.53879 124.85765,225.39817 124.31085,225.39816 C 123.77945,225.39817 123.26005,225.53879 122.77955,225.80441 C 122.29905,226.07004 121.93185,226.40599 121.68585,226.83566 C 121.43975,227.26536 121.34205,227.59348 121.34205,227.83566 C 121.34205,227.90598 121.36155,227.97629 121.40455,228.02316 C 121.44745,228.07004 121.48275,228.08567 121.52955,228.08566 C 121.60775,228.08567 121.67015,228.02317 121.74835,227.89816 C 122.16245,227.2888 122.69355,226.99192 123.34205,226.99191 C 123.81075,226.99192 124.34985,227.14036 124.93585,227.46066 L 121.02955,232.83566 C 119.29515,231.60129 118.43585,230.18723 118.43585,228.58566 C 118.43585,227.82786 118.63885,227.05832 119.09205,226.33566 C 119.54515,225.61301 120.24055,225.04271 121.15455,224.58566 C 122.06865,224.12865 123.05305,223.89817 124.09205,223.89816 z M 127.49835,224.92941 C 127.83425,225.1638 128.03735,225.28099 128.09205,225.33566 C 128.17015,225.40599 128.30305,225.58568 128.52955,225.83566 L 128.68585,231.89816 L 122.37335,231.89816 L 127.49835,224.92941 z M 121.09205,233.61691 L 128.71705,233.61691 L 128.77955,235.61691 L 125.99835,237.64816 L 120.06085,235.08566 L 121.09205,233.61691 z " />
</svg>
